# sample_electric_train.obj - RailwayVehicleAddon test model (1 unit = 1 block, +Z = front)
o body
vn 0.0000 0.0000 1.0000
v -1.3500 0.9000 4.5000
vt 0.0250 0.5237
v 1.3500 0.9000 4.5000
vt 0.4763 0.5237
v 1.3500 3.1000 4.5000
vt 0.4763 0.9750
v -1.3500 3.1000 4.5000
vt 0.0250 0.9750
f 1/1/1 2/2/1 3/3/1 4/4/1
vn 0.0000 0.0000 -1.0000
v 1.3500 0.9000 -4.5000
vt 0.0250 0.5237
v -1.3500 0.9000 -4.5000
vt 0.4763 0.5237
v -1.3500 3.1000 -4.5000
vt 0.4763 0.9750
v 1.3500 3.1000 -4.5000
vt 0.0250 0.9750
f 5/5/2 6/6/2 7/7/2 8/8/2
vn 1.0000 0.0000 0.0000
v 1.3500 0.9000 4.5000
vt 0.0250 0.5237
v 1.3500 0.9000 -4.5000
vt 0.4763 0.5237
v 1.3500 3.1000 -4.5000
vt 0.4763 0.9750
v 1.3500 3.1000 4.5000
vt 0.0250 0.9750
f 9/9/3 10/10/3 11/11/3 12/12/3
vn -1.0000 0.0000 0.0000
v -1.3500 0.9000 -4.5000
vt 0.0250 0.5237
v -1.3500 0.9000 4.5000
vt 0.4763 0.5237
v -1.3500 3.1000 4.5000
vt 0.4763 0.9750
v -1.3500 3.1000 -4.5000
vt 0.0250 0.9750
f 13/13/4 14/14/4 15/15/4 16/16/4
vn 0.0000 1.0000 0.0000
v -1.3500 3.1000 4.5000
vt 0.5250 0.0238
v 1.3500 3.1000 4.5000
vt 0.9762 0.0238
v 1.3500 3.1000 -4.5000
vt 0.9762 0.4750
v -1.3500 3.1000 -4.5000
vt 0.5250 0.4750
f 17/17/5 18/18/5 19/19/5 20/20/5
vn 0.0000 -1.0000 0.0000
v -1.3500 0.9000 -4.5000
vt 0.0250 0.0238
v 1.3500 0.9000 -4.5000
vt 0.4763 0.0238
v 1.3500 0.9000 4.5000
vt 0.4763 0.4750
v -1.3500 0.9000 4.5000
vt 0.0250 0.4750
f 21/21/6 22/22/6 23/23/6 24/24/6
o belt
vn 0.0000 0.0000 1.0000
v -1.3700 1.6000 4.0000
vt 0.5250 0.5237
v 1.3700 1.6000 4.0000
vt 0.9762 0.5237
v 1.3700 2.0000 4.0000
vt 0.9762 0.9750
v -1.3700 2.0000 4.0000
vt 0.5250 0.9750
f 25/25/7 26/26/7 27/27/7 28/28/7
vn 0.0000 0.0000 -1.0000
v 1.3700 1.6000 -4.0000
vt 0.5250 0.5237
v -1.3700 1.6000 -4.0000
vt 0.9762 0.5237
v -1.3700 2.0000 -4.0000
vt 0.9762 0.9750
v 1.3700 2.0000 -4.0000
vt 0.5250 0.9750
f 29/29/8 30/30/8 31/31/8 32/32/8
vn 1.0000 0.0000 0.0000
v 1.3700 1.6000 4.0000
vt 0.5250 0.5237
v 1.3700 1.6000 -4.0000
vt 0.9762 0.5237
v 1.3700 2.0000 -4.0000
vt 0.9762 0.9750
v 1.3700 2.0000 4.0000
vt 0.5250 0.9750
f 33/33/9 34/34/9 35/35/9 36/36/9
vn -1.0000 0.0000 0.0000
v -1.3700 1.6000 -4.0000
vt 0.5250 0.5237
v -1.3700 1.6000 4.0000
vt 0.9762 0.5237
v -1.3700 2.0000 4.0000
vt 0.9762 0.9750
v -1.3700 2.0000 -4.0000
vt 0.5250 0.9750
f 37/37/10 38/38/10 39/39/10 40/40/10
vn 0.0000 1.0000 0.0000
v -1.3700 2.0000 4.0000
vt 0.5250 0.5237
v 1.3700 2.0000 4.0000
vt 0.9762 0.5237
v 1.3700 2.0000 -4.0000
vt 0.9762 0.9750
v -1.3700 2.0000 -4.0000
vt 0.5250 0.9750
f 41/41/11 42/42/11 43/43/11 44/44/11
vn 0.0000 -1.0000 0.0000
v -1.3700 1.6000 -4.0000
vt 0.5250 0.5237
v 1.3700 1.6000 -4.0000
vt 0.9762 0.5237
v 1.3700 1.6000 4.0000
vt 0.9762 0.9750
v -1.3700 1.6000 4.0000
vt 0.5250 0.9750
f 45/45/12 46/46/12 47/47/12 48/48/12
o windows
vn 0.0000 0.0000 1.0000
v -1.3800 2.1000 4.0000
vt 0.5250 0.5237
v 1.3800 2.1000 4.0000
vt 0.9762 0.5237
v 1.3800 2.7000 4.0000
vt 0.9762 0.9750
v -1.3800 2.7000 4.0000
vt 0.5250 0.9750
f 49/49/13 50/50/13 51/51/13 52/52/13
vn 0.0000 0.0000 -1.0000
v 1.3800 2.1000 -4.0000
vt 0.5250 0.5237
v -1.3800 2.1000 -4.0000
vt 0.9762 0.5237
v -1.3800 2.7000 -4.0000
vt 0.9762 0.9750
v 1.3800 2.7000 -4.0000
vt 0.5250 0.9750
f 53/53/14 54/54/14 55/55/14 56/56/14
vn 1.0000 0.0000 0.0000
v 1.3800 2.1000 4.0000
vt 0.5250 0.5237
v 1.3800 2.1000 -4.0000
vt 0.9762 0.5237
v 1.3800 2.7000 -4.0000
vt 0.9762 0.9750
v 1.3800 2.7000 4.0000
vt 0.5250 0.9750
f 57/57/15 58/58/15 59/59/15 60/60/15
vn -1.0000 0.0000 0.0000
v -1.3800 2.1000 -4.0000
vt 0.5250 0.5237
v -1.3800 2.1000 4.0000
vt 0.9762 0.5237
v -1.3800 2.7000 4.0000
vt 0.9762 0.9750
v -1.3800 2.7000 -4.0000
vt 0.5250 0.9750
f 61/61/16 62/62/16 63/63/16 64/64/16
vn 0.0000 1.0000 0.0000
v -1.3800 2.7000 4.0000
vt 0.5250 0.5237
v 1.3800 2.7000 4.0000
vt 0.9762 0.5237
v 1.3800 2.7000 -4.0000
vt 0.9762 0.9750
v -1.3800 2.7000 -4.0000
vt 0.5250 0.9750
f 65/65/17 66/66/17 67/67/17 68/68/17
vn 0.0000 -1.0000 0.0000
v -1.3800 2.1000 -4.0000
vt 0.5250 0.5237
v 1.3800 2.1000 -4.0000
vt 0.9762 0.5237
v 1.3800 2.1000 4.0000
vt 0.9762 0.9750
v -1.3800 2.1000 4.0000
vt 0.5250 0.9750
f 69/69/18 70/70/18 71/71/18 72/72/18
o pantograph_base
vn 0.0000 0.0000 1.0000
v -0.5000 3.1000 1.5000
vt 0.5250 0.0238
v 0.5000 3.1000 1.5000
vt 0.9762 0.0238
v 0.5000 3.3000 1.5000
vt 0.9762 0.4750
v -0.5000 3.3000 1.5000
vt 0.5250 0.4750
f 73/73/19 74/74/19 75/75/19 76/76/19
vn 0.0000 0.0000 -1.0000
v 0.5000 3.1000 0.5000
vt 0.5250 0.0238
v -0.5000 3.1000 0.5000
vt 0.9762 0.0238
v -0.5000 3.3000 0.5000
vt 0.9762 0.4750
v 0.5000 3.3000 0.5000
vt 0.5250 0.4750
f 77/77/20 78/78/20 79/79/20 80/80/20
vn 1.0000 0.0000 0.0000
v 0.5000 3.1000 1.5000
vt 0.5250 0.0238
v 0.5000 3.1000 0.5000
vt 0.9762 0.0238
v 0.5000 3.3000 0.5000
vt 0.9762 0.4750
v 0.5000 3.3000 1.5000
vt 0.5250 0.4750
f 81/81/21 82/82/21 83/83/21 84/84/21
vn -1.0000 0.0000 0.0000
v -0.5000 3.1000 0.5000
vt 0.5250 0.0238
v -0.5000 3.1000 1.5000
vt 0.9762 0.0238
v -0.5000 3.3000 1.5000
vt 0.9762 0.4750
v -0.5000 3.3000 0.5000
vt 0.5250 0.4750
f 85/85/22 86/86/22 87/87/22 88/88/22
vn 0.0000 1.0000 0.0000
v -0.5000 3.3000 1.5000
vt 0.5250 0.0238
v 0.5000 3.3000 1.5000
vt 0.9762 0.0238
v 0.5000 3.3000 0.5000
vt 0.9762 0.4750
v -0.5000 3.3000 0.5000
vt 0.5250 0.4750
f 89/89/23 90/90/23 91/91/23 92/92/23
vn 0.0000 -1.0000 0.0000
v -0.5000 3.1000 0.5000
vt 0.5250 0.0238
v 0.5000 3.1000 0.5000
vt 0.9762 0.0238
v 0.5000 3.1000 1.5000
vt 0.9762 0.4750
v -0.5000 3.1000 1.5000
vt 0.5250 0.4750
f 93/93/24 94/94/24 95/95/24 96/96/24
o pantograph
vn 0.0000 0.0000 1.0000
v -0.0500 3.3000 1.5000
vt 0.0250 0.0238
v 0.0500 3.3000 1.5000
vt 0.4763 0.0238
v 0.0500 3.8000 1.5000
vt 0.4763 0.4750
v -0.0500 3.8000 1.5000
vt 0.0250 0.4750
f 97/97/25 98/98/25 99/99/25 100/100/25
vn 0.0000 0.0000 -1.0000
v 0.0500 3.3000 0.5000
vt 0.0250 0.0238
v -0.0500 3.3000 0.5000
vt 0.4763 0.0238
v -0.0500 3.8000 0.5000
vt 0.4763 0.4750
v 0.0500 3.8000 0.5000
vt 0.0250 0.4750
f 101/101/26 102/102/26 103/103/26 104/104/26
vn 1.0000 0.0000 0.0000
v 0.0500 3.3000 1.5000
vt 0.0250 0.0238
v 0.0500 3.3000 0.5000
vt 0.4763 0.0238
v 0.0500 3.8000 0.5000
vt 0.4763 0.4750
v 0.0500 3.8000 1.5000
vt 0.0250 0.4750
f 105/105/27 106/106/27 107/107/27 108/108/27
vn -1.0000 0.0000 0.0000
v -0.0500 3.3000 0.5000
vt 0.0250 0.0238
v -0.0500 3.3000 1.5000
vt 0.4763 0.0238
v -0.0500 3.8000 1.5000
vt 0.4763 0.4750
v -0.0500 3.8000 0.5000
vt 0.0250 0.4750
f 109/109/28 110/110/28 111/111/28 112/112/28
vn 0.0000 1.0000 0.0000
v -0.0500 3.8000 1.5000
vt 0.0250 0.0238
v 0.0500 3.8000 1.5000
vt 0.4763 0.0238
v 0.0500 3.8000 0.5000
vt 0.4763 0.4750
v -0.0500 3.8000 0.5000
vt 0.0250 0.4750
f 113/113/29 114/114/29 115/115/29 116/116/29
vn 0.0000 -1.0000 0.0000
v -0.0500 3.3000 0.5000
vt 0.0250 0.0238
v 0.0500 3.3000 0.5000
vt 0.4763 0.0238
v 0.0500 3.3000 1.5000
vt 0.4763 0.4750
v -0.0500 3.3000 1.5000
vt 0.0250 0.4750
f 117/117/30 118/118/30 119/119/30 120/120/30
o $bogie_front
vn 0.0000 0.0000 1.0000
v -0.9000 0.3000 4.1000
vt 0.0250 0.0238
v 0.9000 0.3000 4.1000
vt 0.4763 0.0238
v 0.9000 0.8500 4.1000
vt 0.4763 0.4750
v -0.9000 0.8500 4.1000
vt 0.0250 0.4750
f 121/121/31 122/122/31 123/123/31 124/124/31
vn 0.0000 0.0000 -1.0000
v 0.9000 0.3000 2.3000
vt 0.0250 0.0238
v -0.9000 0.3000 2.3000
vt 0.4763 0.0238
v -0.9000 0.8500 2.3000
vt 0.4763 0.4750
v 0.9000 0.8500 2.3000
vt 0.0250 0.4750
f 125/125/32 126/126/32 127/127/32 128/128/32
vn 1.0000 0.0000 0.0000
v 0.9000 0.3000 4.1000
vt 0.0250 0.0238
v 0.9000 0.3000 2.3000
vt 0.4763 0.0238
v 0.9000 0.8500 2.3000
vt 0.4763 0.4750
v 0.9000 0.8500 4.1000
vt 0.0250 0.4750
f 129/129/33 130/130/33 131/131/33 132/132/33
vn -1.0000 0.0000 0.0000
v -0.9000 0.3000 2.3000
vt 0.0250 0.0238
v -0.9000 0.3000 4.1000
vt 0.4763 0.0238
v -0.9000 0.8500 4.1000
vt 0.4763 0.4750
v -0.9000 0.8500 2.3000
vt 0.0250 0.4750
f 133/133/34 134/134/34 135/135/34 136/136/34
vn 0.0000 1.0000 0.0000
v -0.9000 0.8500 4.1000
vt 0.0250 0.0238
v 0.9000 0.8500 4.1000
vt 0.4763 0.0238
v 0.9000 0.8500 2.3000
vt 0.4763 0.4750
v -0.9000 0.8500 2.3000
vt 0.0250 0.4750
f 137/137/35 138/138/35 139/139/35 140/140/35
vn 0.0000 -1.0000 0.0000
v -0.9000 0.3000 2.3000
vt 0.0250 0.0238
v 0.9000 0.3000 2.3000
vt 0.4763 0.0238
v 0.9000 0.3000 4.1000
vt 0.4763 0.4750
v -0.9000 0.3000 4.1000
vt 0.0250 0.4750
f 141/141/36 142/142/36 143/143/36 144/144/36
o $bogie_front
vn 0.0000 0.0000 1.0000
v -0.7800 0.0000 2.9500
vt 0.0250 0.0238
v -0.6600 0.0000 2.9500
vt 0.4763 0.0238
v -0.6600 0.7000 2.9500
vt 0.4763 0.4750
v -0.7800 0.7000 2.9500
vt 0.0250 0.4750
f 145/145/37 146/146/37 147/147/37 148/148/37
vn 0.0000 0.0000 -1.0000
v -0.6600 0.0000 2.2500
vt 0.0250 0.0238
v -0.7800 0.0000 2.2500
vt 0.4763 0.0238
v -0.7800 0.7000 2.2500
vt 0.4763 0.4750
v -0.6600 0.7000 2.2500
vt 0.0250 0.4750
f 149/149/38 150/150/38 151/151/38 152/152/38
vn 1.0000 0.0000 0.0000
v -0.6600 0.0000 2.9500
vt 0.0250 0.0238
v -0.6600 0.0000 2.2500
vt 0.4763 0.0238
v -0.6600 0.7000 2.2500
vt 0.4763 0.4750
v -0.6600 0.7000 2.9500
vt 0.0250 0.4750
f 153/153/39 154/154/39 155/155/39 156/156/39
vn -1.0000 0.0000 0.0000
v -0.7800 0.0000 2.2500
vt 0.0250 0.0238
v -0.7800 0.0000 2.9500
vt 0.4763 0.0238
v -0.7800 0.7000 2.9500
vt 0.4763 0.4750
v -0.7800 0.7000 2.2500
vt 0.0250 0.4750
f 157/157/40 158/158/40 159/159/40 160/160/40
vn 0.0000 1.0000 0.0000
v -0.7800 0.7000 2.9500
vt 0.0250 0.0238
v -0.6600 0.7000 2.9500
vt 0.4763 0.0238
v -0.6600 0.7000 2.2500
vt 0.4763 0.4750
v -0.7800 0.7000 2.2500
vt 0.0250 0.4750
f 161/161/41 162/162/41 163/163/41 164/164/41
vn 0.0000 -1.0000 0.0000
v -0.7800 0.0000 2.2500
vt 0.0250 0.0238
v -0.6600 0.0000 2.2500
vt 0.4763 0.0238
v -0.6600 0.0000 2.9500
vt 0.4763 0.4750
v -0.7800 0.0000 2.9500
vt 0.0250 0.4750
f 165/165/42 166/166/42 167/167/42 168/168/42
o $bogie_front
vn 0.0000 0.0000 1.0000
v -0.7800 0.0000 4.1500
vt 0.0250 0.0238
v -0.6600 0.0000 4.1500
vt 0.4763 0.0238
v -0.6600 0.7000 4.1500
vt 0.4763 0.4750
v -0.7800 0.7000 4.1500
vt 0.0250 0.4750
f 169/169/43 170/170/43 171/171/43 172/172/43
vn 0.0000 0.0000 -1.0000
v -0.6600 0.0000 3.4500
vt 0.0250 0.0238
v -0.7800 0.0000 3.4500
vt 0.4763 0.0238
v -0.7800 0.7000 3.4500
vt 0.4763 0.4750
v -0.6600 0.7000 3.4500
vt 0.0250 0.4750
f 173/173/44 174/174/44 175/175/44 176/176/44
vn 1.0000 0.0000 0.0000
v -0.6600 0.0000 4.1500
vt 0.0250 0.0238
v -0.6600 0.0000 3.4500
vt 0.4763 0.0238
v -0.6600 0.7000 3.4500
vt 0.4763 0.4750
v -0.6600 0.7000 4.1500
vt 0.0250 0.4750
f 177/177/45 178/178/45 179/179/45 180/180/45
vn -1.0000 0.0000 0.0000
v -0.7800 0.0000 3.4500
vt 0.0250 0.0238
v -0.7800 0.0000 4.1500
vt 0.4763 0.0238
v -0.7800 0.7000 4.1500
vt 0.4763 0.4750
v -0.7800 0.7000 3.4500
vt 0.0250 0.4750
f 181/181/46 182/182/46 183/183/46 184/184/46
vn 0.0000 1.0000 0.0000
v -0.7800 0.7000 4.1500
vt 0.0250 0.0238
v -0.6600 0.7000 4.1500
vt 0.4763 0.0238
v -0.6600 0.7000 3.4500
vt 0.4763 0.4750
v -0.7800 0.7000 3.4500
vt 0.0250 0.4750
f 185/185/47 186/186/47 187/187/47 188/188/47
vn 0.0000 -1.0000 0.0000
v -0.7800 0.0000 3.4500
vt 0.0250 0.0238
v -0.6600 0.0000 3.4500
vt 0.4763 0.0238
v -0.6600 0.0000 4.1500
vt 0.4763 0.4750
v -0.7800 0.0000 4.1500
vt 0.0250 0.4750
f 189/189/48 190/190/48 191/191/48 192/192/48
o $bogie_front
vn 0.0000 0.0000 1.0000
v 0.6600 0.0000 2.9500
vt 0.0250 0.0238
v 0.7800 0.0000 2.9500
vt 0.4763 0.0238
v 0.7800 0.7000 2.9500
vt 0.4763 0.4750
v 0.6600 0.7000 2.9500
vt 0.0250 0.4750
f 193/193/49 194/194/49 195/195/49 196/196/49
vn 0.0000 0.0000 -1.0000
v 0.7800 0.0000 2.2500
vt 0.0250 0.0238
v 0.6600 0.0000 2.2500
vt 0.4763 0.0238
v 0.6600 0.7000 2.2500
vt 0.4763 0.4750
v 0.7800 0.7000 2.2500
vt 0.0250 0.4750
f 197/197/50 198/198/50 199/199/50 200/200/50
vn 1.0000 0.0000 0.0000
v 0.7800 0.0000 2.9500
vt 0.0250 0.0238
v 0.7800 0.0000 2.2500
vt 0.4763 0.0238
v 0.7800 0.7000 2.2500
vt 0.4763 0.4750
v 0.7800 0.7000 2.9500
vt 0.0250 0.4750
f 201/201/51 202/202/51 203/203/51 204/204/51
vn -1.0000 0.0000 0.0000
v 0.6600 0.0000 2.2500
vt 0.0250 0.0238
v 0.6600 0.0000 2.9500
vt 0.4763 0.0238
v 0.6600 0.7000 2.9500
vt 0.4763 0.4750
v 0.6600 0.7000 2.2500
vt 0.0250 0.4750
f 205/205/52 206/206/52 207/207/52 208/208/52
vn 0.0000 1.0000 0.0000
v 0.6600 0.7000 2.9500
vt 0.0250 0.0238
v 0.7800 0.7000 2.9500
vt 0.4763 0.0238
v 0.7800 0.7000 2.2500
vt 0.4763 0.4750
v 0.6600 0.7000 2.2500
vt 0.0250 0.4750
f 209/209/53 210/210/53 211/211/53 212/212/53
vn 0.0000 -1.0000 0.0000
v 0.6600 0.0000 2.2500
vt 0.0250 0.0238
v 0.7800 0.0000 2.2500
vt 0.4763 0.0238
v 0.7800 0.0000 2.9500
vt 0.4763 0.4750
v 0.6600 0.0000 2.9500
vt 0.0250 0.4750
f 213/213/54 214/214/54 215/215/54 216/216/54
o $bogie_front
vn 0.0000 0.0000 1.0000
v 0.6600 0.0000 4.1500
vt 0.0250 0.0238
v 0.7800 0.0000 4.1500
vt 0.4763 0.0238
v 0.7800 0.7000 4.1500
vt 0.4763 0.4750
v 0.6600 0.7000 4.1500
vt 0.0250 0.4750
f 217/217/55 218/218/55 219/219/55 220/220/55
vn 0.0000 0.0000 -1.0000
v 0.7800 0.0000 3.4500
vt 0.0250 0.0238
v 0.6600 0.0000 3.4500
vt 0.4763 0.0238
v 0.6600 0.7000 3.4500
vt 0.4763 0.4750
v 0.7800 0.7000 3.4500
vt 0.0250 0.4750
f 221/221/56 222/222/56 223/223/56 224/224/56
vn 1.0000 0.0000 0.0000
v 0.7800 0.0000 4.1500
vt 0.0250 0.0238
v 0.7800 0.0000 3.4500
vt 0.4763 0.0238
v 0.7800 0.7000 3.4500
vt 0.4763 0.4750
v 0.7800 0.7000 4.1500
vt 0.0250 0.4750
f 225/225/57 226/226/57 227/227/57 228/228/57
vn -1.0000 0.0000 0.0000
v 0.6600 0.0000 3.4500
vt 0.0250 0.0238
v 0.6600 0.0000 4.1500
vt 0.4763 0.0238
v 0.6600 0.7000 4.1500
vt 0.4763 0.4750
v 0.6600 0.7000 3.4500
vt 0.0250 0.4750
f 229/229/58 230/230/58 231/231/58 232/232/58
vn 0.0000 1.0000 0.0000
v 0.6600 0.7000 4.1500
vt 0.0250 0.0238
v 0.7800 0.7000 4.1500
vt 0.4763 0.0238
v 0.7800 0.7000 3.4500
vt 0.4763 0.4750
v 0.6600 0.7000 3.4500
vt 0.0250 0.4750
f 233/233/59 234/234/59 235/235/59 236/236/59
vn 0.0000 -1.0000 0.0000
v 0.6600 0.0000 3.4500
vt 0.0250 0.0238
v 0.7800 0.0000 3.4500
vt 0.4763 0.0238
v 0.7800 0.0000 4.1500
vt 0.4763 0.4750
v 0.6600 0.0000 4.1500
vt 0.0250 0.4750
f 237/237/60 238/238/60 239/239/60 240/240/60
o $bogie_rear
vn 0.0000 0.0000 1.0000
v -0.9000 0.3000 -2.3000
vt 0.0250 0.0238
v 0.9000 0.3000 -2.3000
vt 0.4763 0.0238
v 0.9000 0.8500 -2.3000
vt 0.4763 0.4750
v -0.9000 0.8500 -2.3000
vt 0.0250 0.4750
f 241/241/61 242/242/61 243/243/61 244/244/61
vn 0.0000 0.0000 -1.0000
v 0.9000 0.3000 -4.1000
vt 0.0250 0.0238
v -0.9000 0.3000 -4.1000
vt 0.4763 0.0238
v -0.9000 0.8500 -4.1000
vt 0.4763 0.4750
v 0.9000 0.8500 -4.1000
vt 0.0250 0.4750
f 245/245/62 246/246/62 247/247/62 248/248/62
vn 1.0000 0.0000 0.0000
v 0.9000 0.3000 -2.3000
vt 0.0250 0.0238
v 0.9000 0.3000 -4.1000
vt 0.4763 0.0238
v 0.9000 0.8500 -4.1000
vt 0.4763 0.4750
v 0.9000 0.8500 -2.3000
vt 0.0250 0.4750
f 249/249/63 250/250/63 251/251/63 252/252/63
vn -1.0000 0.0000 0.0000
v -0.9000 0.3000 -4.1000
vt 0.0250 0.0238
v -0.9000 0.3000 -2.3000
vt 0.4763 0.0238
v -0.9000 0.8500 -2.3000
vt 0.4763 0.4750
v -0.9000 0.8500 -4.1000
vt 0.0250 0.4750
f 253/253/64 254/254/64 255/255/64 256/256/64
vn 0.0000 1.0000 0.0000
v -0.9000 0.8500 -2.3000
vt 0.0250 0.0238
v 0.9000 0.8500 -2.3000
vt 0.4763 0.0238
v 0.9000 0.8500 -4.1000
vt 0.4763 0.4750
v -0.9000 0.8500 -4.1000
vt 0.0250 0.4750
f 257/257/65 258/258/65 259/259/65 260/260/65
vn 0.0000 -1.0000 0.0000
v -0.9000 0.3000 -4.1000
vt 0.0250 0.0238
v 0.9000 0.3000 -4.1000
vt 0.4763 0.0238
v 0.9000 0.3000 -2.3000
vt 0.4763 0.4750
v -0.9000 0.3000 -2.3000
vt 0.0250 0.4750
f 261/261/66 262/262/66 263/263/66 264/264/66
o $bogie_rear
vn 0.0000 0.0000 1.0000
v -0.7800 0.0000 -3.4500
vt 0.0250 0.0238
v -0.6600 0.0000 -3.4500
vt 0.4763 0.0238
v -0.6600 0.7000 -3.4500
vt 0.4763 0.4750
v -0.7800 0.7000 -3.4500
vt 0.0250 0.4750
f 265/265/67 266/266/67 267/267/67 268/268/67
vn 0.0000 0.0000 -1.0000
v -0.6600 0.0000 -4.1500
vt 0.0250 0.0238
v -0.7800 0.0000 -4.1500
vt 0.4763 0.0238
v -0.7800 0.7000 -4.1500
vt 0.4763 0.4750
v -0.6600 0.7000 -4.1500
vt 0.0250 0.4750
f 269/269/68 270/270/68 271/271/68 272/272/68
vn 1.0000 0.0000 0.0000
v -0.6600 0.0000 -3.4500
vt 0.0250 0.0238
v -0.6600 0.0000 -4.1500
vt 0.4763 0.0238
v -0.6600 0.7000 -4.1500
vt 0.4763 0.4750
v -0.6600 0.7000 -3.4500
vt 0.0250 0.4750
f 273/273/69 274/274/69 275/275/69 276/276/69
vn -1.0000 0.0000 0.0000
v -0.7800 0.0000 -4.1500
vt 0.0250 0.0238
v -0.7800 0.0000 -3.4500
vt 0.4763 0.0238
v -0.7800 0.7000 -3.4500
vt 0.4763 0.4750
v -0.7800 0.7000 -4.1500
vt 0.0250 0.4750
f 277/277/70 278/278/70 279/279/70 280/280/70
vn 0.0000 1.0000 0.0000
v -0.7800 0.7000 -3.4500
vt 0.0250 0.0238
v -0.6600 0.7000 -3.4500
vt 0.4763 0.0238
v -0.6600 0.7000 -4.1500
vt 0.4763 0.4750
v -0.7800 0.7000 -4.1500
vt 0.0250 0.4750
f 281/281/71 282/282/71 283/283/71 284/284/71
vn 0.0000 -1.0000 0.0000
v -0.7800 0.0000 -4.1500
vt 0.0250 0.0238
v -0.6600 0.0000 -4.1500
vt 0.4763 0.0238
v -0.6600 0.0000 -3.4500
vt 0.4763 0.4750
v -0.7800 0.0000 -3.4500
vt 0.0250 0.4750
f 285/285/72 286/286/72 287/287/72 288/288/72
o $bogie_rear
vn 0.0000 0.0000 1.0000
v -0.7800 0.0000 -2.2500
vt 0.0250 0.0238
v -0.6600 0.0000 -2.2500
vt 0.4763 0.0238
v -0.6600 0.7000 -2.2500
vt 0.4763 0.4750
v -0.7800 0.7000 -2.2500
vt 0.0250 0.4750
f 289/289/73 290/290/73 291/291/73 292/292/73
vn 0.0000 0.0000 -1.0000
v -0.6600 0.0000 -2.9500
vt 0.0250 0.0238
v -0.7800 0.0000 -2.9500
vt 0.4763 0.0238
v -0.7800 0.7000 -2.9500
vt 0.4763 0.4750
v -0.6600 0.7000 -2.9500
vt 0.0250 0.4750
f 293/293/74 294/294/74 295/295/74 296/296/74
vn 1.0000 0.0000 0.0000
v -0.6600 0.0000 -2.2500
vt 0.0250 0.0238
v -0.6600 0.0000 -2.9500
vt 0.4763 0.0238
v -0.6600 0.7000 -2.9500
vt 0.4763 0.4750
v -0.6600 0.7000 -2.2500
vt 0.0250 0.4750
f 297/297/75 298/298/75 299/299/75 300/300/75
vn -1.0000 0.0000 0.0000
v -0.7800 0.0000 -2.9500
vt 0.0250 0.0238
v -0.7800 0.0000 -2.2500
vt 0.4763 0.0238
v -0.7800 0.7000 -2.2500
vt 0.4763 0.4750
v -0.7800 0.7000 -2.9500
vt 0.0250 0.4750
f 301/301/76 302/302/76 303/303/76 304/304/76
vn 0.0000 1.0000 0.0000
v -0.7800 0.7000 -2.2500
vt 0.0250 0.0238
v -0.6600 0.7000 -2.2500
vt 0.4763 0.0238
v -0.6600 0.7000 -2.9500
vt 0.4763 0.4750
v -0.7800 0.7000 -2.9500
vt 0.0250 0.4750
f 305/305/77 306/306/77 307/307/77 308/308/77
vn 0.0000 -1.0000 0.0000
v -0.7800 0.0000 -2.9500
vt 0.0250 0.0238
v -0.6600 0.0000 -2.9500
vt 0.4763 0.0238
v -0.6600 0.0000 -2.2500
vt 0.4763 0.4750
v -0.7800 0.0000 -2.2500
vt 0.0250 0.4750
f 309/309/78 310/310/78 311/311/78 312/312/78
o $bogie_rear
vn 0.0000 0.0000 1.0000
v 0.6600 0.0000 -3.4500
vt 0.0250 0.0238
v 0.7800 0.0000 -3.4500
vt 0.4763 0.0238
v 0.7800 0.7000 -3.4500
vt 0.4763 0.4750
v 0.6600 0.7000 -3.4500
vt 0.0250 0.4750
f 313/313/79 314/314/79 315/315/79 316/316/79
vn 0.0000 0.0000 -1.0000
v 0.7800 0.0000 -4.1500
vt 0.0250 0.0238
v 0.6600 0.0000 -4.1500
vt 0.4763 0.0238
v 0.6600 0.7000 -4.1500
vt 0.4763 0.4750
v 0.7800 0.7000 -4.1500
vt 0.0250 0.4750
f 317/317/80 318/318/80 319/319/80 320/320/80
vn 1.0000 0.0000 0.0000
v 0.7800 0.0000 -3.4500
vt 0.0250 0.0238
v 0.7800 0.0000 -4.1500
vt 0.4763 0.0238
v 0.7800 0.7000 -4.1500
vt 0.4763 0.4750
v 0.7800 0.7000 -3.4500
vt 0.0250 0.4750
f 321/321/81 322/322/81 323/323/81 324/324/81
vn -1.0000 0.0000 0.0000
v 0.6600 0.0000 -4.1500
vt 0.0250 0.0238
v 0.6600 0.0000 -3.4500
vt 0.4763 0.0238
v 0.6600 0.7000 -3.4500
vt 0.4763 0.4750
v 0.6600 0.7000 -4.1500
vt 0.0250 0.4750
f 325/325/82 326/326/82 327/327/82 328/328/82
vn 0.0000 1.0000 0.0000
v 0.6600 0.7000 -3.4500
vt 0.0250 0.0238
v 0.7800 0.7000 -3.4500
vt 0.4763 0.0238
v 0.7800 0.7000 -4.1500
vt 0.4763 0.4750
v 0.6600 0.7000 -4.1500
vt 0.0250 0.4750
f 329/329/83 330/330/83 331/331/83 332/332/83
vn 0.0000 -1.0000 0.0000
v 0.6600 0.0000 -4.1500
vt 0.0250 0.0238
v 0.7800 0.0000 -4.1500
vt 0.4763 0.0238
v 0.7800 0.0000 -3.4500
vt 0.4763 0.4750
v 0.6600 0.0000 -3.4500
vt 0.0250 0.4750
f 333/333/84 334/334/84 335/335/84 336/336/84
o $bogie_rear
vn 0.0000 0.0000 1.0000
v 0.6600 0.0000 -2.2500
vt 0.0250 0.0238
v 0.7800 0.0000 -2.2500
vt 0.4763 0.0238
v 0.7800 0.7000 -2.2500
vt 0.4763 0.4750
v 0.6600 0.7000 -2.2500
vt 0.0250 0.4750
f 337/337/85 338/338/85 339/339/85 340/340/85
vn 0.0000 0.0000 -1.0000
v 0.7800 0.0000 -2.9500
vt 0.0250 0.0238
v 0.6600 0.0000 -2.9500
vt 0.4763 0.0238
v 0.6600 0.7000 -2.9500
vt 0.4763 0.4750
v 0.7800 0.7000 -2.9500
vt 0.0250 0.4750
f 341/341/86 342/342/86 343/343/86 344/344/86
vn 1.0000 0.0000 0.0000
v 0.7800 0.0000 -2.2500
vt 0.0250 0.0238
v 0.7800 0.0000 -2.9500
vt 0.4763 0.0238
v 0.7800 0.7000 -2.9500
vt 0.4763 0.4750
v 0.7800 0.7000 -2.2500
vt 0.0250 0.4750
f 345/345/87 346/346/87 347/347/87 348/348/87
vn -1.0000 0.0000 0.0000
v 0.6600 0.0000 -2.9500
vt 0.0250 0.0238
v 0.6600 0.0000 -2.2500
vt 0.4763 0.0238
v 0.6600 0.7000 -2.2500
vt 0.4763 0.4750
v 0.6600 0.7000 -2.9500
vt 0.0250 0.4750
f 349/349/88 350/350/88 351/351/88 352/352/88
vn 0.0000 1.0000 0.0000
v 0.6600 0.7000 -2.2500
vt 0.0250 0.0238
v 0.7800 0.7000 -2.2500
vt 0.4763 0.0238
v 0.7800 0.7000 -2.9500
vt 0.4763 0.4750
v 0.6600 0.7000 -2.9500
vt 0.0250 0.4750
f 353/353/89 354/354/89 355/355/89 356/356/89
vn 0.0000 -1.0000 0.0000
v 0.6600 0.0000 -2.9500
vt 0.0250 0.0238
v 0.7800 0.0000 -2.9500
vt 0.4763 0.0238
v 0.7800 0.0000 -2.2500
vt 0.4763 0.4750
v 0.6600 0.0000 -2.2500
vt 0.0250 0.4750
f 357/357/90 358/358/90 359/359/90 360/360/90
